<?xml version="1.0" encoding="UTF-8"?>
<svg width="223px" height="95px" viewBox="0 0 223 95" version="1.1" xmlns="http://www.w3.org/2000/svg" xmlns:xlink="http://www.w3.org/1999/xlink">
    <title>Group</title>
    <defs>
        <path d="M179.302256,38.6495033 C180.760928,38.6495033 182.088511,38.8992691 183.285003,39.3988008 C184.481496,39.8983326 185.442026,40.5049068 186.166596,41.2185235 L186.166596,41.2185235 L186.166596,45.0863263 L184.03579,45.0863263 L183.506664,42.1176806 L183.339078,41.9849925 C182.932401,41.6821514 182.416235,41.4266618 181.790579,41.2185235 C181.075544,40.9806513 180.246103,40.8617152 179.302256,40.8617152 C177.805449,40.8617152 176.656625,41.1780853 175.855786,41.8108254 C175.054946,42.4435656 174.654527,43.2689823 174.654527,44.2870756 C174.654527,45.1909901 175.062097,45.9450451 175.877237,46.5492406 C176.692377,47.1534362 178.010426,47.6838913 179.831382,48.140606 C182.024158,48.6829547 183.69019,49.4822055 184.82948,50.5383583 C185.968769,51.594511 186.538414,52.9028084 186.538414,54.4632504 C186.538414,56.137871 185.854364,57.4842279 184.486263,58.5023212 C183.118162,59.5204144 181.32819,60.029461 179.116347,60.029461 C177.514668,60.029461 176.091748,59.7678015 174.847586,59.2444826 C173.603425,58.7211636 172.590458,58.0360916 171.808686,57.1892663 L171.808686,57.1892663 L171.808686,53.3214636 L173.92519,53.3214636 L174.468617,56.3043816 L174.707935,56.491087 C175.199413,56.8545947 175.767939,57.1586828 176.413513,57.4033514 C177.166684,57.6887981 178.067629,57.8315214 179.116347,57.8315214 C180.536884,57.8315214 181.659489,57.5318024 182.484164,56.9323643 C183.308838,56.3329262 183.721175,55.5194032 183.721175,54.491795 C183.721175,53.540306 183.363657,52.743434 182.648622,52.1011789 C181.933586,51.4589239 180.670357,50.9189539 178.858934,50.4812689 C176.656625,49.95795 174.935774,49.1872439 173.696379,48.1691507 C172.456985,47.1510574 171.837287,45.8713047 171.837287,44.3298926 C171.837287,42.7028464 172.528488,41.3493533 173.91089,40.2694133 C175.293291,39.1894733 177.090414,38.6495033 179.302256,38.6495033 Z M96.4083982,38.9492223 L96.4083982,40.7618088 L94.077383,41.1614342 L94.077383,53.0360169 L94.082634,53.3259516 C94.1351444,54.7534638 94.5814829,55.8485589 95.4216494,56.6112368 C96.317827,57.4247599 97.5000188,57.8315214 98.9682247,57.8315214 C100.512701,57.8315214 101.756863,57.4271386 102.700709,56.6183729 C103.644556,55.8096073 104.116479,54.6154886 104.116479,53.0360169 L104.116479,53.0360169 L104.116479,41.1614342 L101.785464,40.7618088 L101.785464,38.9492223 L109.264734,38.9492223 L109.264734,40.7618088 L106.933719,41.1614342 L106.933719,53.0360169 L106.928708,53.3545877 C106.861907,55.454552 106.127091,57.0776929 104.724259,58.2240106 C103.251286,59.4276442 101.332608,60.029461 98.9682247,60.029461 C96.6705778,60.029461 94.8114859,59.4276442 93.390949,58.2240106 C91.9704121,57.020377 91.2601437,55.2910458 91.2601437,53.0360169 L91.2601437,53.0360169 L91.2601437,41.1614342 L88.9291284,40.7618088 L88.9291284,38.9492223 L96.4083982,38.9492223 Z M29.4222415,38.6495033 C32.1870449,38.6495033 34.4394062,39.6533241 36.1793256,41.6609659 C37.9192449,43.6686077 38.7892046,46.1805387 38.7892046,49.1967588 L38.7892046,49.1967588 L38.7892046,49.4964778 L38.784271,49.8882251 C38.7119114,52.7396703 37.8435963,55.1210189 36.1793256,57.0322707 C34.4394062,59.0303976 32.1870449,60.029461 29.4222415,60.029461 C26.7337086,60.029461 24.5504674,59.0303976 22.8725178,57.0322707 C21.1945681,55.0341438 20.3555933,52.5222128 20.3555933,49.4964778 L20.3555933,49.4964778 L20.3555933,49.1967588 L20.3603512,48.8061986 C20.4301336,45.9630632 21.2675225,43.5813189 22.8725178,41.6609659 C24.5504674,39.6533241 26.7337086,38.6495033 29.4222415,38.6495033 Z M9.8392584,38.6495033 C11.42187,38.6495033 12.8138055,38.9563585 14.0150648,39.5700689 C15.2163242,40.1837793 16.1172688,40.8712301 16.7178985,41.6324213 L16.7178985,41.6324213 L16.7178985,45.328956 L14.7301002,45.328956 L14.200974,42.388855 L13.9984293,42.2021496 C13.5804985,41.8386419 13.0855189,41.5345538 12.5134906,41.2898852 C11.8461243,41.0044385 11.0500516,40.8617152 10.1252725,40.8617152 C7.96109889,40.8617152 6.29744998,41.6443149 5.13432581,43.2095143 C3.97120164,44.7747137 3.38963956,46.7609469 3.38963956,49.1682141 L3.38963956,49.1682141 L3.38963956,49.4964778 L3.39555283,49.9169685 C3.45862769,52.1365388 4.02630143,53.9873659 5.09857404,55.46945 C6.2378637,57.0441643 7.81809182,57.8315214 9.8392584,57.8315214 C10.7831051,57.8315214 11.6411475,57.6840406 12.4133857,57.389079 C13.1856238,57.0941174 13.7814866,56.7325516 14.200974,56.3043816 L14.200974,56.3043816 L14.7301002,53.3642806 L16.7178985,53.3642806 L16.7178985,57.0608153 L16.5466445,57.2689437 C15.9509787,57.9558244 15.1071188,58.5738991 14.0150648,59.1231677 C12.8138055,59.7273632 11.42187,60.029461 9.8392584,60.029461 C7.13165788,60.029461 4.9102814,59.0303976 3.17512896,57.0322707 C1.43997651,55.0341438 0.572400287,52.5222128 0.572400287,49.4964778 L0.572400287,49.4964778 L0.572400287,49.1967588 L0.577239279,48.8025968 C0.648211155,45.9339384 1.49987367,43.5462586 3.13222683,41.6395574 C4.83877787,39.646188 7.07445505,38.6495033 9.8392584,38.6495033 Z M159.633469,38.9634946 L160.006744,38.9681419 C162.094206,39.0208116 163.7097,39.5211729 164.853227,40.469226 C166.06402,41.4730468 166.669417,42.8979016 166.669417,44.7437903 C166.669417,45.7523686 166.388169,46.6467683 165.825675,47.4269892 C165.263181,48.2072102 164.457574,48.8209206 163.408856,49.2681205 C164.543378,49.6392012 165.360902,50.2433967 165.861427,51.080707 C166.361952,51.9180173 166.612214,52.9503829 166.612214,54.1778037 L166.612214,54.1778037 L166.612214,55.8476669 L166.616013,56.0789233 C166.633739,56.6003095 166.713511,56.9942111 166.855326,57.260628 C167.017401,57.5651045 167.284347,57.7458874 167.656166,57.8029767 L167.656166,57.8029767 L168.342599,57.8886108 L168.342599,59.729742 L166.826725,59.729742 L166.611674,59.7246674 C165.627827,59.6773043 164.920122,59.2984003 164.488559,58.5879552 C164.026169,57.826764 163.794975,56.9038196 163.794975,55.8191222 L163.794975,55.8191222 L163.794975,54.2063483 L163.789136,53.9490241 C163.742426,52.9356038 163.415456,52.1127066 162.808226,51.4803324 C162.150393,50.7952603 161.268516,50.4527243 160.162595,50.4527243 L160.162595,50.4527243 L155.643572,50.4527243 L155.643572,57.5318024 L157.974587,57.9314278 L157.974587,59.729742 L150.495317,59.729742 L150.495317,57.9314278 L152.826332,57.5318024 L152.826332,41.1614342 L150.495317,40.7618088 L150.495317,38.9634946 L159.633469,38.9634946 Z M147.029231,38.9492223 L147.029231,43.9445395 L144.612411,43.9445395 L144.3836,41.1614342 L136.189295,41.1614342 L136.189295,47.883704 L144.154789,47.883704 L144.154789,50.0959159 L136.189295,50.0959159 L136.189295,57.5318024 L144.555208,57.5318024 L144.78402,54.7486971 L147.186539,54.7486971 L147.186539,59.729742 L131.04104,59.729742 L131.04104,57.9314278 L133.372056,57.5318024 L133.372056,41.1614342 L131.04104,40.7618088 L131.04104,38.9492223 L147.029231,38.9492223 Z M128.719011,38.9492223 L128.719011,43.5449141 L126.316492,43.5449141 L126.101981,41.1614342 L121.482853,41.1614342 L121.482853,57.5318024 L123.813868,57.9314278 L123.813868,59.729742 L116.334598,59.729742 L116.334598,57.9314278 L118.665614,57.5318024 L118.665614,41.1614342 L114.032184,41.1614342 L113.831975,43.5449141 L111.415155,43.5449141 L111.415155,38.9492223 L128.719011,38.9492223 Z M79.2708359,38.9492223 L79.6364971,38.9545083 C81.6826899,39.0144169 83.2888049,39.5835483 84.4548422,40.6619025 C85.6894699,41.8036893 86.3067838,43.3070419 86.3067838,45.1719603 C86.3067838,47.0559085 85.6894699,48.5640186 84.4548422,49.6962905 C83.2202145,50.8285624 81.4922124,51.3946984 79.2708359,51.3946984 L79.2708359,51.3946984 L74.8519175,51.3946984 L74.8519175,57.5318024 L77.1829327,57.9314278 L77.1829327,59.729742 L69.703663,59.729742 L69.703663,57.9314278 L72.0346782,57.5318024 L72.0346782,41.1614342 L69.703663,40.7618088 L69.703663,38.9492223 L79.2708359,38.9492223 Z M47.6180561,38.9492223 L54.2535841,55.8333945 L54.3393884,55.8333945 L60.9606157,38.9492223 L66.9097098,38.9492223 L66.9097098,40.7618088 L64.5786946,41.1614342 L64.5786946,57.5318024 L66.9097098,57.9314278 L66.9097098,59.729742 L59.4304401,59.729742 L59.4304401,57.9314278 L61.7614553,57.5318024 L61.7614553,51.508877 L62.0331687,43.0881994 L61.9616652,43.0739271 L55.2260322,59.729742 L53.3526396,59.729742 L46.6170066,43.0881994 L46.5455031,43.1024718 L46.8315172,51.508877 L46.8315172,57.5318024 L49.1625325,57.9314278 L49.1625325,59.729742 L41.6832627,59.729742 L41.6832627,57.9314278 L44.014278,57.5318024 L44.014278,41.1614342 L41.6832627,40.7618088 L41.6832627,38.9492223 L47.6180561,38.9492223 Z M29.4222415,40.9616215 C27.4582778,40.9616215 25.9257187,41.7275702 24.8245643,43.2594674 C23.7234098,44.7913647 23.1728326,46.7609469 23.1728326,49.1682141 L23.1728326,49.1682141 L23.1728326,49.4964778 L23.1779305,49.8982396 C23.2357072,52.1510514 23.7845851,53.9986066 24.8245643,55.4409053 C25.9257187,56.9680452 27.4582778,57.7316151 29.4222415,57.7316151 C31.500611,57.7316151 33.1118239,56.9704239 34.2558805,55.4480415 C35.3999371,53.9256591 35.9719653,51.9418045 35.9719653,49.4964778 L35.9719653,49.4964778 L35.9719653,49.1682141 L35.9666026,48.7695358 C35.9058246,46.5336982 35.3284335,44.69463 34.2344294,43.2523313 C33.0760722,41.7251914 31.4720095,40.9616215 29.4222415,40.9616215 Z M79.2708359,41.1614342 L74.8519175,41.1614342 L74.8519175,49.1967588 L79.2708359,49.1967588 C80.681839,49.1967588 81.7377079,48.8185419 82.4384425,48.0621081 C83.1391772,47.3056744 83.4895445,46.3518067 83.4895445,45.200505 C83.4895445,44.0492033 83.1391772,43.0881994 82.4384425,42.3174933 C81.7377079,41.5467872 80.681839,41.1614342 79.2708359,41.1614342 L79.2708359,41.1614342 Z M159.633469,41.1614342 L155.643572,41.1614342 L155.643572,48.2405123 L159.347455,48.2405123 C160.920533,48.2405123 162.064589,47.9407933 162.779624,47.3413552 C163.49466,46.7419172 163.852177,45.8665473 163.852177,44.7152456 C163.852177,43.6210333 163.50896,42.7551783 162.822527,42.1176806 C162.136093,41.480183 161.073073,41.1614342 159.633469,41.1614342 L159.633469,41.1614342 Z M123.416691,0.415886537 C125.428652,0.415886537 127.2598,0.760391173 128.910135,1.44940045 C130.560469,2.13840972 131.885339,2.97506384 132.884745,3.9593628 L132.884745,3.9593628 L132.884745,9.29426317 L129.945703,9.29426317 L129.215874,5.19957949 L129.011317,5.03650181 C128.446351,4.61005327 127.725532,4.25100694 126.84886,3.9593628 C125.862605,3.63126314 124.718548,3.46721332 123.416691,3.46721332 C121.352129,3.46721332 119.767545,3.90358586 118.662938,4.77633094 C117.558332,5.64907602 117.006029,6.78758181 117.006029,8.19184833 C117.006029,9.43862702 117.568195,10.4787029 118.692526,11.312076 C119.816858,12.1454492 121.634855,12.8771114 124.14652,13.5070627 C127.171037,14.2551299 129.469013,15.3575448 131.040447,16.8143072 C132.611881,18.2710697 133.397598,20.0756178 133.397598,22.2279515 C133.397598,24.5377731 132.45408,26.3948171 130.567044,27.7990836 C128.680008,29.2033502 126.211082,29.9054834 123.160264,29.9054834 C120.951052,29.9054834 118.988403,29.5445738 117.272318,28.8227546 C115.556233,28.1009353 114.159038,27.1560083 113.080731,25.9879736 L113.080731,25.9879736 L113.080731,20.6530732 L116.000048,20.6530732 L116.749602,24.7674428 L117.037466,24.993524 C117.724968,25.5088455 118.523219,25.9387586 119.432218,26.2832632 C120.471074,26.6769828 121.713756,26.8738426 123.160264,26.8738426 C125.119625,26.8738426 126.668047,26.4604371 127.805528,25.6336259 C128.94301,24.8068148 129.511751,23.684714 129.511751,22.2673235 C129.511751,20.9549249 129.018623,19.855791 128.032367,18.969922 C127.046111,18.0840529 125.303726,17.3392667 122.805212,16.7355633 C119.767545,16.0137441 117.393956,14.9507012 115.684446,13.5464347 C113.974937,12.1421682 113.120182,10.376992 113.120182,8.25090627 C113.120182,6.00670464 114.073562,4.13981761 115.980323,2.65024518 C117.887084,1.16067275 120.365873,0.415886537 123.416691,0.415886537 Z M97.7469871,0.415886537 C99.7589487,0.415886537 101.590097,0.760391173 103.240431,1.44940045 C104.890766,2.13840972 106.215636,2.97506384 107.215041,3.9593628 L107.215041,3.9593628 L107.215041,9.29426317 L104.276,9.29426317 L103.54617,5.19957949 L103.341614,5.03650181 C102.776647,4.61005327 102.055828,4.25100694 101.179157,3.9593628 C100.192901,3.63126314 99.0488446,3.46721332 97.7469871,3.46721332 C95.6824253,3.46721332 94.0978412,3.90358586 92.9932349,4.77633094 C91.8886285,5.64907602 91.3363254,6.78758181 91.3363254,8.19184833 C91.3363254,9.43862702 91.8984911,10.4787029 93.0228225,11.312076 C94.147154,12.1454492 95.9651519,12.8771114 98.4768163,13.5070627 C101.501334,14.2551299 103.799309,15.3575448 105.370743,16.8143072 C106.942177,18.2710697 107.727894,20.0756178 107.727894,22.2279515 C107.727894,24.5377731 106.784376,26.3948171 104.897341,27.7990836 C103.010305,29.2033502 100.541378,29.9054834 97.4905607,29.9054834 C95.281348,29.9054834 93.3186992,29.5445738 91.6026144,28.8227546 C89.8865296,28.1009353 88.4893341,27.1560083 87.4110279,25.9879736 L87.4110279,25.9879736 L87.4110279,20.6530732 L90.3303446,20.6530732 L91.0798989,24.7674428 L91.3677623,24.993524 C92.0552647,25.5088455 92.8535153,25.9387586 93.7625143,26.2832632 C94.8013702,26.6769828 96.0440524,26.8738426 97.4905607,26.8738426 C99.4499219,26.8738426 100.998343,26.4604371 102.135825,25.6336259 C103.273306,24.8068148 103.842047,23.684714 103.842047,22.2673235 C103.842047,20.9549249 103.348919,19.855791 102.362664,18.969922 C101.376408,18.0840529 99.6340229,17.3392667 97.1355086,16.7355633 C94.0978412,16.0137441 91.7242526,14.9507012 90.0147428,13.5464347 C88.305233,12.1421682 87.4504781,10.376992 87.4504781,8.25090627 C87.4504781,6.00670464 88.4038586,4.13981761 90.3106195,2.65024518 C92.2173804,1.16067275 94.6961696,0.415886537 97.7469871,0.415886537 Z M12.6111299,0.415886537 C16.4246518,0.415886537 19.5313571,1.80046708 21.9312458,4.56962815 C24.3311346,7.33878923 25.531079,10.8035216 25.531079,14.9638252 L25.531079,14.9638252 L25.531079,15.3772308 L25.5264873,15.8216719 C25.4438381,19.7972353 24.2454243,23.1138206 21.9312458,25.7714278 C19.5313571,28.5274649 16.4246518,29.9054834 12.6111299,29.9054834 C8.90280866,29.9054834 5.8914414,28.5274649 3.57702813,25.7714278 C1.26261487,23.0153907 0.105408236,19.5506584 0.105408236,15.3772308 L0.105408236,15.3772308 L0.105408236,14.9638252 L0.109836322,14.52074 C0.189541881,10.5569279 1.34527249,7.23989062 3.57702813,4.56962815 C5.8914414,1.80046708 8.90280866,0.415886537 12.6111299,0.415886537 Z M174.144619,0.8292921 L174.144619,3.32941146 L171.047777,3.70344507 L177.063936,15.3969167 L183.080095,3.70344507 L180.002978,3.32941146 L180.002978,0.8292921 L189.865534,0.8292921 L189.865534,3.32941146 L187.439345,3.70344507 L178.918097,19.4128565 L178.918097,26.4604371 L182.13329,27.0116445 L182.13329,29.4920779 L171.836781,29.4920779 L171.836781,27.0116445 L175.051974,26.4604371 L175.051974,19.1175668 L166.688527,3.70344507 L164.282063,3.32941146 L164.282063,0.8292921 L174.144619,0.8292921 Z M159.816856,0.8292921 L159.816856,7.71938483 L156.483312,7.71938483 L156.16771,3.88061888 L144.86522,3.88061888 L144.86522,13.1527151 L155.852108,13.1527151 L155.852108,16.2040419 L144.86522,16.2040419 L144.86522,26.4604371 L156.404411,26.4604371 L156.720013,22.6216711 L160.033832,22.6216711 L160.033832,29.4920779 L137.764179,29.4920779 L137.764179,27.0116445 L140.979373,26.4604371 L140.979373,3.88061888 L137.764179,3.32941146 L137.764179,0.8292921 L159.816856,0.8292921 Z M67.2840811,0.8292921 L67.2840811,3.32941146 L64.1872384,3.70344507 L70.2033978,15.3969167 L76.2195573,3.70344507 L73.1424397,3.32941146 L73.1424397,0.8292921 L83.0049962,0.8292921 L83.0049962,3.32941146 L80.5788073,3.70344507 L72.0575585,19.4128565 L72.0575585,26.4604371 L75.2727519,27.0116445 L75.2727519,29.4920779 L64.9762429,29.4920779 L64.9762429,27.0116445 L68.1914363,26.4604371 L68.1914363,19.1175668 L59.8279884,3.70344507 L57.4215246,3.32941146 L57.4215246,0.8292921 L67.2840811,0.8292921 Z M41.5552022,0.8292921 L41.9539439,0.833698847 C45.5173711,0.913020286 48.399112,2.06318116 50.5991666,4.28418146 C52.8807046,6.58744103 54.0214737,9.56330489 54.0214737,13.211773 L54.0214737,13.211773 L54.0214737,17.1292829 L54.0167792,17.5333045 C53.9354074,21.0103688 52.7962032,23.8515587 50.5991666,26.0568745 C48.3176285,28.3470101 45.3029737,29.4920779 41.5552022,29.4920779 L41.5552022,29.4920779 L29.5228833,29.4920779 L29.5228833,27.0116445 L32.7380767,26.4604371 L32.7380767,3.88061888 L29.5228833,3.32941146 L29.5228833,0.8292921 L41.5552022,0.8292921 Z M12.6111299,3.60501517 C9.90221439,3.60501517 7.78833977,4.66149606 6.26950607,6.77445783 C4.75067236,8.8874196 3.99125551,11.6040847 3.99125551,14.9244532 L3.99125551,14.9244532 L3.99125551,15.3772308 L3.99556222,15.8119039 C4.05872733,18.9734448 4.81670861,21.5616239 6.26950607,23.5764411 C7.78833977,25.6828409 9.90221439,26.7360408 12.6111299,26.7360408 C15.4778463,26.7360408 17.7002091,25.6861219 19.2782181,23.5862841 C20.8562272,21.4864463 21.6452317,18.7500952 21.6452317,15.3772308 L21.6452317,15.3772308 L21.6452317,14.9244532 L21.6407013,14.4931293 C21.5742548,11.3556035 20.7768979,8.77943202 19.2486305,6.76461484 C17.6508963,4.65821506 15.4383961,3.60501517 12.6111299,3.60501517 Z M41.5552022,3.88061888 L36.623924,3.88061888 L36.623924,26.4604371 L41.5552022,26.4604371 C44.2115175,26.4604371 46.305667,25.587692 47.8376507,23.8422018 C49.3696345,22.0967117 50.1356264,19.859072 50.1356264,17.1292829 L50.1356264,17.1292829 L50.1356264,13.1724011 L50.1304156,12.7894396 C50.0609379,10.2580875 49.2966829,8.1612257 47.8376507,6.49885412 C46.305667,4.75336396 44.2115175,3.88061888 41.5552022,3.88061888 L41.5552022,3.88061888 Z" id="path-1"></path>
        <linearGradient x1="50%" y1="0%" x2="50%" y2="100%" id="linearGradient-3">
            <stop stop-color="#EEEEEE" offset="0%"></stop>
            <stop stop-color="#D8D8D8" offset="100%"></stop>
        </linearGradient>
        <linearGradient x1="-1.11022302e-14%" y1="50%" x2="100%" y2="50%" id="linearGradient-4">
            <stop stop-color="#0081FF" offset="0%"></stop>
            <stop stop-color="#BB00FF" offset="100%"></stop>
        </linearGradient>
        <rect id="path-5" x="-16.5918367" y="-18.8723404" width="222.183673" height="94.7446809"></rect>
        <linearGradient x1="-1.11022302e-14%" y1="50%" x2="100%" y2="50%" id="linearGradient-6">
            <stop stop-color="#0081FF" offset="0%"></stop>
            <stop stop-color="#BB00FF" offset="100%"></stop>
        </linearGradient>
    </defs>
    <g id="Page-1" stroke="none" stroke-width="1" fill="none" fill-rule="evenodd">
        <g id="Desktop-HD" transform="translate(-410.000000, -152.000000)">
            <g id="Group" transform="translate(410.000000, 152.000000)">
                <g id="Group-2" transform="translate(16.000000, 18.000000)">
                    <mask id="mask-2" fill="white">
                        <use xlink:href="#path-1"></use>
                    </mask>
                    <use id="Combined-Shape" fill="#000000" fill-rule="nonzero" xlink:href="#path-1"></use>
                    <g id="Rectangle" mask="url(#mask-2)">
                        <use fill="url(#linearGradient-3)" xlink:href="#path-5"></use>
                        <use fill="url(#linearGradient-4)" xlink:href="#path-5"></use>
                    </g>
                </g>
                <rect id="Rectangle" stroke="url(#linearGradient-6)" stroke-width="6" x="3" y="3" width="217" height="89" rx="16"></rect>
            </g>
        </g>
    </g>
</svg>